<?xml version="1.0" encoding="utf-8"?>
<!-- Generator: Adobe Illustrator 18.0.0, SVG Export Plug-In . SVG Version: 6.00 Build 0)  -->
<!DOCTYPE svg PUBLIC "-//W3C//DTD SVG 1.1//EN" "http://www.w3.org/Graphics/SVG/1.1/DTD/svg11.dtd">
<svg version="1.1" id="Ebene_1" xmlns="http://www.w3.org/2000/svg" xmlns:xlink="http://www.w3.org/1999/xlink" x="0px" y="0px"
	 viewBox="0 0 2409.4 2409.4" enable-background="new 0 0 2409.4 2409.4" xml:space="preserve">
<rect x="-49.1" y="-58.1" fill="#69B43A" width="2518.7" height="2523.8"/>
<g>
	<path fill="#FFFFFF" d="M2284.6,893.1c-27.7-10.6-113.4-20-165.1-20c-7.3,0-14.7,0.2-22,0.5c-25.9-37.4-59.8-70.4-98.8-96.4
		c-32-21.2-66.8-37.7-103.6-48.9c-94.5-110.3-185.6-273.8-303.8-329.7c10,27.6,14.4,83.9,0.8,138.6
		c-87.7-89.7-171.7-209.7-420-233.3c19.4,39.4,17.1,130.7,2.2,174.4c-126.4-97.3-266.7-142.6-472-132.1
		c60.4,62.7,90,144.4,100.2,223.7c-168-66.9-353.5-77.6-519.2,9c110.3,43.1,175.8,123.4,197.9,192.3
		c-176.8-9.4-339.6,66.2-426.4,223.4c91.3-5.5,181.1,17.5,243.5,84.2C184,1108.8,76.8,1231.8,51.5,1428.3
		c56.8-56.6,147.8-63.1,204.5-44.5c-56.8,71-97.4,187.5-39.5,352.7c38.9-44.3,52.6-76.3,119.3-113c-6,70.3,9.7,125.4,77.4,223
		c50.9,73.5,194.7,166.1,256.1,171.4c2.7,1.3,9.5,9.8,14,15.5c21.2,26.9,56.8,72,152.9,72c24,0,51.3-2.8,81.2-8.3
		c90.8-16.8,109.8-77.1,119-106.1c0.3-1.1,0.8-2.4,1.2-3.6c42-12.4,194.2-34,246.9-41.5l22.6-3.2c12.9-1.9,18.8,2.2,38.5,18.8
		c13,10.9,28.4,23.7,49.3,33.9c21,10.2,47.6,17.6,82.9,17.6c30.7-0.1,64.9-5.6,104.6-17c103.9-29.8,105.6-92.2,106.7-133.5
		c0.7-28,2.3-36.1,14.4-44.2c123.9-82.7,186.5-169.8,217.1-228.2c0.8-1.6,71.4-142.3,52.9-229.2c30-13.8,59.9-29.3,89.3-46.2
		c38.9-22.4,75.8-46.7,109.5-72.2c106.5-80.1,178.1-175.7,185.3-249.6C2362.5,942,2323.1,907.9,2284.6,893.1z M2129.3,1185.5
		c-31.5,23.7-65.9,46.4-102.3,67.4c-35.3,20.3-71.4,38.4-107.3,53.8c-13.8,5.9-27.3,11.2-40.2,15.9c-34.2,11.1-70,16.8-106.7,16.8
		c-24.3,0-48.5-2.5-71.7-7.5c-17.8-3.8-35.7,6.5-41.3,23.8c-5.6,17.3,2.6,36.2,19.2,43.7c32.8,14.8,47.4,18.6,86.5,22.3
		c12,1.1,23.8,1.7,35.2,1.7c46.3,0,80.4-9.3,104.4-19.3c-3.6,42.5-24.4,108.3-47.8,152.9c-26.8,51.1-82.1,127.7-193.5,201.9
		c-44.2,29.5-45.4,73-46.2,101.6c-0.9,35.3-1.4,51.4-55.1,66.8c-32.7,9.4-61.3,14.2-84.9,14.2c-44.7,0-64-16.2-86.4-34.9
		c-19-16-42.8-35.9-79.2-35.9c-5,0-10,0.4-15.2,1.1l-22.4,3.2c-153.9,21.8-248.5,37.2-276.4,51c-19.1,9.4-25,28.3-29.8,43.4
		c-7.8,24.9-15.3,48.4-63.8,57.4c-25.6,4.7-48.5,7.1-68.2,7.1c-61.5,0-78.7-21.8-96.8-44.8c-13.9-17.7-31.2-39.7-64.1-42.5
		c-39.6-3.4-76.2-24.3-130-62.2c-28.5-20-59.4-52.1-70.3-67.7c12.1-22.3,19.4-34.7,28.4-52.7c46.6-94.3,59-125.7,251.4-177.3
		c20.3-5.5,39.6-9.7,58.2-13.8c92.1-20.4,172.2-38.1,203.9-172.3c21.4-8.8,45-12.8,74-12.8c17.6,0,35.4,1.4,54.2,2.8
		c19.2,1.5,39,3,59.1,3c77,0,167.3-20.8,253.8-174.6c7.5-10.9,17.1-30.4,9.1-50c-7-17.2-26.1-26.2-43.8-20.5
		c-19.4,6.2-39.9,9.2-61,9.2c-99.5,0-161.2-82-161.2-158c0-80.1,77.9-145.3,173.8-145.3c40.4,0,79.7,11.9,110.7,33.5
		c14.7,10.2,34.5,8,46.6-5.1c59.6-64.4,147.4-101.4,240.8-101.4c67.7,0,132.2,19.1,186.4,55.1c36.8,24.4,67.6,56.4,89.3,92.4
		c7.1,11.8,20.4,18.5,34.2,17.1c23.9-2.4,67.8-2.3,91.1-0.2c-9.3,9.5-20.9,26.7-21.7,45.6c-2.4,52.4,31.9,83.7,84.4,91.7
		C2210.9,1115.7,2175.3,1150.8,2129.3,1185.5z"/>
	<path fill="#FFFFFF" d="M1784.5,901.9c-53.4,0-96.7,38-96.7,84.8c0,46.8,43.3,84.8,96.7,84.8c3.1,0,6.3-0.1,9.4-0.3l0,0
		c27.1-2.3,51-14.5,66.8-32.3c6.9-7.7,12.3-16.5,15.7-26h0.1c3-8.2,4.6-17,4.6-26.1c0-7.2-1-14.1-2.9-20.8
		C1867.6,929.2,1829.6,901.9,1784.5,901.9z"/>
</g>
<rect x="3307.7" y="2544.8" fill="#FFFFFF" width="2404.8" height="2580.9"/>
<rect x="3335.2" y="2528.3" fill="#FFFFFF" width="803.4" height="60.5"/>
</svg>
