<?xml version="1.0" encoding="utf-8"?>
<!-- Generator: Adobe Illustrator 18.0.0, SVG Export Plug-In . SVG Version: 6.00 Build 0)  -->
<!DOCTYPE svg PUBLIC "-//W3C//DTD SVG 1.1//EN" "http://www.w3.org/Graphics/SVG/1.1/DTD/svg11.dtd">
<svg version="1.1" id="Layer_1" xmlns="http://www.w3.org/2000/svg" xmlns:xlink="http://www.w3.org/1999/xlink" x="0px" y="0px"
	 viewBox="45.7 59.4 400.7 366.1" enable-background="new 45.7 59.4 400.7 366.1" xml:space="preserve">
<g>
	<path fill="#292A29" d="M444.7,256.4c-2.6,3.7-13.9,15.1-19.4,20.9c-2.4-0.2-2.3,2.2-3.2,3.4c-15.1,14.3-30.3,28.4-45.2,42.8
		c-20.8,20.1-42.4,39.4-60.4,62.2c-2.5,3.1-5.5,4.4-9.6,4.2c-4.8-0.2-9.7,0-14.5,0.1c-29.5,0.8-58.9,1.1-87.7-6.5
		c-13.5-3.6-25.9-9.6-34.9-20.8c-5.9-7.4-10.1-15.4-3-24.7c1.3-1.7,0.8-3.8-1.7-4.1c-8.2-0.7-15.8-3.7-23.5-6.1
		c-14.3-4.3-27.9-10.3-40.9-17.8c-6.4-3.7-10.9-10.3-18.7-11.9c-2.9-0.6-5.6-1.9-8.4-2.9c-1.3-0.8-2.3-2.1-4-2.3
		c-9.6-5.9-15.6-13.4-21.8-23.9c-1.9-3.3-3.1-15.3-0.9-18.1c4.5-5.6,9.8-6.4,15.8-6.9c0.7,0.9,1.6,0.4,2.4,0.1
		c12.1,1.6,23.9,2.3,33.3-7.7c1-1.1,2.3-2,3.7-2.6c3.8-1.5,4.5-4.4,4.4-8c-0.1-3.8-0.1-7.7,1.1-11.4c1.5-4.6,3.5-5.1,8.2-4.5
		c10.6,1.4,21.5,5.8,31.6-1.7c0.9-0.7,1.9-1.4,3-1.7c6.7-2.1,9.1-7.5,11.5-13.4c5.1-12.6,9.9-25.3,16.2-37.4
		c6.2-11.9,19.1-12.2,24.3-2.3c0.5,0.9,1,2.2,3.2,1.9c0.9-5.1,1.8-10.4,2.8-15.7c1-5.7,0.8-11.5,3.1-17.1
		c5.5-13.6,17.6-17.7,29.8-9.7c3,2,5.9,4.4,8.3,7.1c2.9,3.3,4.6,2.5,6.9-0.6c3.3-4.4,6.9-8.5,10.8-12.4c3.6-3.6,7.5-6.8,13.3-7
		c8.9-0.2,15.3,3.7,20.4,10.4c6.7,8.9,9.9,19.4,13.9,29.6c2.1,5.3,4.1,10.5,6.2,15.9c2.5-1.3,3.1-3.2,4.3-4.5
		c2.8-3.3,5.6-6.3,10.5-6.8c7-0.7,12.8,6.3,14.8,12.6c2.8,8.7,4.5,17.7,5.7,26.8c1.6,12.2,7.3,21,19.6,25c5.5,1.8,10.9,4.1,16.2,6.4
		c11.2,4.9,22.4,10,33.5,15.1c0.8,0.6,1.3,1.6,2.5,1.5c5.1,4,11.1,6.8,15.5,11.8C446.8,247.6,447.2,252.1,444.7,256.4z M58,254.6
		c-3.2-1.3-4.1,1.6-4.8,3.3c-0.8,2-0.8,4.6,2.4,5.3c0.3,0.3,0.7,0.7,1,1c0.1,5.1,3.3,8.2,7.6,9.4c7.8,2.2,15.7,4.8,23.9,4.4
		c4.2-0.2,5.2,1.9,4.3,5.2c-2.1,7.6,2,11.5,7.8,15.2c19.3,12.3,40.4,20.4,62.6,25.7c18.8,4.4,37.6,4.5,56.2-1.2
		c13.7-4.2,26.5-10.4,39.6-16c7.1-3.1,14.2-5.9,22-6.1c7-0.2,11.5,3.6,14.7,9.4c3.1,5.5,2.1,10.7-1.5,15.4
		c-5.4,7.1-12.3,12.5-20.3,16.4c-21,10.3-43.3,13.5-66.5,11.8c-9.7-0.7-19.1-3-27.5-8.3c-1.9-1.2-3.7-3.7-6.1-1.5
		c-2.1,2-1.4,4.6-0.5,7c2.7,7,8.2,12.1,14.2,15.6c8.8,5,18.4,8.2,28.6,10.1c19.9,3.7,39.8,2.9,59.8,1.8c3.3-0.2,4.9-1.4,5.5-5
		c2.8-15.6,10.9-28,23.5-37.6c10.1-7.6,19.6-15.7,28-25.2c14.1-15.9,26.2-33,31.3-54.2c1.1-4.5,0.3-5.5-4.1-5.3
		c-20,0.9-39.9,1.9-59.9,2.5c-3.9,0.1-5.9,1.4-6.6,5.1c-1.3,6.6-3.8,12.7-6.6,18.8c-5.7,12.2-18.2,19.6-31.4,17.2
		c-26.4-4.8-46.3-17.8-53.2-45.6c-0.5-2.2-1.8-3.4-4-3.8c-2.2-0.4-3.2,0.9-4.4,2.5c-3.5,4.6-7,9.2-11.4,13
		c-13.7,11.8-30.1,13.7-47.3,13.4c-11.7-0.2-25.8-12.3-27-24.1c-0.3-2.6-0.3-5.7-2.8-7.8c-3.2,1.4-5.9,3.2-8.4,5.4
		c-5.7,5.3-11.8,9.1-20.2,7c-1.5-0.4-3.4-1.8-5.1-0.1C67.2,254,62.6,253.1,58,254.6z M306.2,183.8c4.5-1.4,9-3.6,11.5-7.4
		c2.1-3.1-2-6.2-2.5-9.6c-0.2-1-0.4-2-0.7-2.9c-1-3-2.8-3.5-5.3-1.6c-2.2,1.7-4.4,3.5-6.6,5.2c-1.8-0.1-3.5,0.1-5.3,0.9
		c-9.9,4.2-20.3,6.3-30.9,7.4c-17.3,1.8-34.6,0.6-51.7-2.2c-2.9-0.5-5.3-0.2-6,3.4c-0.7,3.1-2.6,5.7-4.6,8.1
		c-0.8-2.5-1.7-5.1-2.3-7.6c-1.6-6.7-2.9-13.5-6.7-19.3c-2.7-4.2-5.6-4.1-8.3,0c-8,12.3-11.4,26.7-17.7,39.8
		c-2.5,5.2-4.8,10.2-10,13.2c-1.7,1-3,2.5-3.5,4.6c1,1.6,2.6,1.4,4,1.5c8.6,0.9,17.2,1.8,25.8,2.7c14.6,1.5,28.9,4.5,43.5,5.9
		c11.7,1.1,23.4,3.6,35.1,4.7c10.6,1.1,20.9,4.6,31.6,4c21.9-1.1,43.8-2.9,65.8-4.4c2.4-0.2,4-1.1,3.7-3.6c-0.9-6.7-1.5-13.4-7-18.8
		c-5.2-5.1-8.9-11.3-9.9-19c-1.4-10.5-3.3-20.9-6.9-30.9c-0.8-2.2-2.1-3.2-3.7-4.1c-1.8-0.9-3,0.6-4.2,1.8c-5.2,5-6.9,12-10.2,18.1
		c-2.1,3.9-1.6,6.1,2.9,7.9c7,2.8,7.8,7.3,3,13.3c-3.3,4.2-7.2,7.8-11.6,10.9c-14.3,10-30.7,13.5-47.6,14.6
		c-19.5,1.3-39,0.8-58.3-1.9c-8.2-1.2-16.5-2.5-24-6.6c-3.9-2.1-8.7-4.4-8.2-9.6c0.5-5.1,4.7-7.5,9.3-9.3c4.1-1.6,8.7-0.2,12.6-2.5
		c0.9,0.9,2,1.1,3.2,1.2c11.4,1.1,22.8,2.9,34.2,3.8c16.3,1.3,32.3,0.4,48.1-3.6C293.5,190.3,300.4,188.3,306.2,183.8z M403.7,230.9
		c-9.5-5.4-19.9-8.7-29.9-12.8c-1.7,2-1,3.6-0.6,5.2c1.2,5.4,2.2,10.8,1.9,16.3c-0.8,15.5-4.8,30.2-12.2,43.9
		c-12.8,23.7-31.2,42.4-52.2,58.8c-9.3,7.2-16.3,16-19.8,27.4c-3.4,11.1-1.7,13.1,9.9,11.1c4.9,1.5,8.6,0.3,11.6-4.1
		c2.5-3.7,5.7-6.9,8.7-10.2c23.2-25.2,48.8-48,73.4-71.8c13.7-13.3,28.1-25.9,40.5-40.5c2.4-2.8,2.4-4.9-0.6-7
		C425,240.2,414.9,234.6,403.7,230.9z M214.2,347.1c4.6,0.7,8.8-1.4,13.3-1.5c13.8-0.2,27.2-3.1,39.7-9.2c8-3.9,15.7-8.2,21.1-15.6
		c2.3-3.1,2.3-6-0.2-9.1c-3.6-4.4-8-5.2-15.9-2c-11.3,4.5-22.3,9.6-33.6,14.1c-10.5,4.2-21.1,8.3-32.6,9.6c-5.5,0.6-10.9,1-16.4,1.3
		c-2.2,0.1-4.7,0.9-5,3.3c-0.4,2.4,2.2,2.9,4,3.8C196.6,345.7,205.5,346,214.2,347.1z M262.1,250.6c-9.6-2.8-18.5-2.9-27.3-3.8
		c-2.3-0.2-3.8,1.1-2.2,3.9c2,3.2,3.6,6.6,6.5,9.2c6.1,5.5,13.1,8.1,22.1,7.3C257.8,261.3,257.3,256.1,262.1,250.6z M145.7,233.7
		c0,0,0,0.1,0,0.1c-1.7-0.2-3.3-0.3-5-0.5c-1.1-0.1-2.4-0.5-3.2,0.7c-0.8,1.3-0.4,2.5,0.3,3.7c4.6,8.1,11.6,12.5,20.8,13.5
		c2.3,0.2,3.7-1,2.4-2.7c-2.5-3.3-1.5-6.4-0.1-9.2c1.4-3,0.6-3.9-2.3-4.1C154.2,234.7,149.9,234.2,145.7,233.7z M272.8,264.4
		c5-2,7.1-5.9,5.6-10.7c-0.8-2.6-2.5-3.1-5.5-2.1C274.2,256,273.6,260.3,272.8,264.4z M173.4,248.4c2.2-2.6,4-5.1,3.7-8.3
		c-0.1-1.6-1.3-3.6-4.6-2.4C175.4,241,169.9,244.4,173.4,248.4z"/>
	<path fill="#FD611D" d="M425.6,230.6c-11.2-5-22.3-10.1-33.5-15.1c-5.3-2.3-10.7-4.6-16.2-6.4c-12.3-4-18-12.8-19.6-25
		c-1.2-9.1-2.9-18-5.7-26.8c-2-6.3-7.8-13.3-14.8-12.6c-4.9,0.5-7.7,3.5-10.5,6.8c-1.2,1.4-1.7,3.2-4.3,4.5
		c-2.1-5.4-4.1-10.6-6.2-15.9c-4-10.1-7.2-20.7-13.9-29.6c-5.1-6.7-11.5-10.7-20.4-10.4c-5.8,0.1-9.7,3.4-13.3,7
		c-3.9,3.9-7.5,8-10.8,12.4c-2.4,3.1-4,3.9-6.9,0.6c-2.4-2.7-5.3-5.1-8.3-7.1c-12.2-8.1-24.3-3.9-29.8,9.7c-2.3,5.6-2,11.4-3.1,17.1
		c-1,5.3-1.9,10.6-2.8,15.7c-2.1,0.3-2.7-0.9-3.2-1.9c-5.2-10-18.1-9.6-24.3,2.3c-6.3,12.1-11.2,24.8-16.2,37.4
		c-2.4,5.9-4.9,11.3-11.5,13.4c-1.1,0.3-2.1,1-3,1.7c-10.1,7.6-21,3.1-31.6,1.7c-4.7-0.6-6.7-0.1-8.2,4.5c-1.2,3.7-1.3,7.6-1.1,11.4
		c0.1,3.7-0.6,6.5-4.4,8c-1.4,0.5-2.7,1.5-3.7,2.6c-9.4,10-21.2,9.3-33.3,7.7c0.1-1.5,0.3-3,0.2-4.5c-1.1-19,3.2-37.3,8.8-55.1
		c3.7-11.8,9.3-23.1,15.7-34c14.3-24.4,33.3-44.1,56.8-59.6c11.6-7.7,23.9-13.9,37.1-18.5c7-2.5,14.1-4.5,21.4-6.1
		c7.9-1.8,15.8-4,23.9-4.3c23.6-1,46.9,0,69.8,7.5c11.7,3.8,22.9,8.4,33.8,13.9c10.1,5.1,19.2,11.7,28,18.8
		c19.1,15.4,34.3,34,45.6,55.8c6.2,11.9,10.9,24.3,14.5,37.3C423.7,207,425.5,218.6,425.6,230.6z"/>
	<path fill="#E2B371" d="M71.8,254.7c1.7-1.7,3.6-0.3,5.1,0.1c8.3,2.1,14.5-1.7,20.2-7c2.4-2.2,5.2-4.1,8.4-5.4
		c2.5,2.1,2.5,5.2,2.8,7.8c1.2,11.8,15.3,23.8,27,24.1c17.2,0.3,33.5-1.6,47.3-13.4c4.5-3.8,7.9-8.4,11.4-13
		c1.2-1.6,2.1-2.9,4.4-2.5c2.3,0.4,3.5,1.7,4,3.8c6.9,27.8,26.8,40.8,53.2,45.6c13.2,2.4,25.7-5.1,31.4-17.2
		c2.8-6,5.3-12.2,6.6-18.8c0.7-3.7,2.7-5,6.6-5.1c20-0.6,40-1.6,59.9-2.5c4.4-0.2,5.2,0.8,4.1,5.3c-5.1,21.1-17.2,38.2-31.3,54.2
		c-8.4,9.5-18,17.6-28,25.2c-12.7,9.6-20.7,22-23.5,37.6c-0.6,3.5-2.2,4.8-5.5,5c-20,1.1-39.9,1.9-59.8-1.8
		c-10.1-1.9-19.8-5.1-28.6-10.1c-6.1-3.5-11.5-8.6-14.2-15.6c-0.9-2.4-1.7-5.1,0.5-7c2.4-2.2,4.2,0.3,6.1,1.5
		c8.4,5.3,17.8,7.6,27.5,8.3c23.1,1.7,45.5-1.5,66.5-11.8c7.9-3.9,14.9-9.3,20.3-16.4c3.6-4.7,4.6-9.9,1.5-15.4
		c-3.2-5.8-7.8-9.6-14.7-9.4c-7.8,0.3-14.9,3.1-22,6.1c-13.1,5.7-25.9,11.9-39.6,16c-18.7,5.7-37.4,5.6-56.2,1.2
		c-22.2-5.2-43.2-13.4-62.6-25.7c-5.8-3.7-9.9-7.6-7.8-15.2c0.9-3.2,0-5.4-4.3-5.2c-8.3,0.4-16.1-2.3-23.9-4.4
		c-4.3-1.2-7.5-4.3-7.6-9.4c4.9-4,10.8-5.6,16.7-6C73.7,256.1,71.8,256,71.8,254.7z"/>
	<path fill="#FD611D" d="M291.7,419.4c-0.6,0.1-1.2,0.2-1.8,0.3c-2.8-1-5.6-1-8.3,0.1c-7.5,2.9-15.6,3-23.4,3.7
		c-16.8,1.3-33.4-0.1-50-3.9c-12.4-2.9-24.6-6.3-36.3-11.5c-18.9-8.5-36.1-19.6-51.2-34C103.3,357.5,89.6,338.1,80,316
		c-2.8-6.6-7-12.9-6.5-20.6c2.8,1,5.5,2.3,8.4,2.9c7.8,1.6,12.3,8.2,18.7,11.9c13,7.6,26.6,13.5,40.9,17.8
		c7.8,2.3,15.3,5.3,23.5,6.1c2.5,0.2,3,2.4,1.7,4.1c-7.1,9.3-2.9,17.3,3,24.7c9,11.2,21.4,17.2,34.9,20.8
		c28.8,7.6,58.3,7.3,87.7,6.5c4.8-0.1,9.7-0.3,14.5-0.1c4,0.2,7.1-1,9.6-4.2c18-22.8,39.6-42.1,60.4-62.2
		c14.9-14.5,30.1-28.6,45.2-42.8c0.1,8.5-3.4,16.2-6,23.9c-4.2,12.6-10.2,24.6-17.6,35.8c-13.3,20.2-29.6,37.4-49.5,51.2
		c-13.9,9.7-28.9,17.1-45,22.6C299.9,415.6,295.1,416.2,291.7,419.4z"/>
	<path fill="#E2B371" d="M201.1,190.6c-3.9,2.2-8.5,0.9-12.6,2.5c-4.7,1.8-8.9,4.2-9.3,9.3c-0.5,5.3,4.3,7.5,8.2,9.6
		c7.4,4.1,15.7,5.4,24,6.6c19.4,2.7,38.9,3.2,58.3,1.9c16.9-1.1,33.3-4.6,47.6-14.6c4.4-3.1,8.3-6.7,11.6-10.9c4.8-6,4-10.5-3-13.3
		c-4.5-1.8-5-4-2.9-7.9c3.3-6.1,5-13.1,10.2-18.1c1.2-1.2,2.4-2.7,4.2-1.8c1.6,0.8,2.9,1.9,3.7,4.1c3.6,10,5.6,20.4,6.9,30.9
		c1,7.7,4.7,13.9,9.9,19c5.5,5.4,6.1,12.1,7,18.8c0.3,2.5-1.3,3.4-3.7,3.6c-21.9,1.5-43.8,3.3-65.8,4.4c-10.7,0.5-21-3-31.6-4
		c-11.7-1.2-23.4-3.6-35.1-4.7c-14.6-1.4-28.9-4.4-43.5-5.9c-8.6-0.9-17.2-1.8-25.8-2.7c-1.5-0.1-3,0.1-4-1.5
		c0.5-2.1,1.8-3.6,3.5-4.6c5.2-3.1,7.5-8.1,10-13.2c6.3-13.1,9.6-27.5,17.7-39.8c2.7-4.1,5.6-4.3,8.3,0c3.8,5.8,5.1,12.6,6.7,19.3
		c0.6,2.6,1.5,5.1,2.3,7.6C203,186.9,202.1,188.8,201.1,190.6z"/>
	<path fill="#006EB6" d="M300.9,380.8c-11.5,2.1-13.2,0-9.9-11.1c3.5-11.5,10.5-20.2,19.8-27.4c21-16.4,39.4-35.1,52.2-58.8
		c7.4-13.7,11.3-28.4,12.2-43.9c0.3-5.5-0.7-10.9-1.9-16.3c-0.4-1.6-1.1-3.2,0.6-5.2c10,4.1,20.4,7.3,29.9,12.8
		c-1.4,5.4-1.7,11.1-3,16.6c-3.3,14.7-9.3,28.2-18.2,40.2c-13.9,18.8-31.8,33.8-49.4,49.1c-7.5,6.5-15.4,12.7-22.2,20
		C304.6,363.5,300.1,371,300.9,380.8z"/>
	<path fill="#00BBE8" d="M300.9,380.8c-0.8-9.7,3.7-17.3,10-24c6.8-7.3,14.7-13.4,22.2-20c17.6-15.3,35.5-30.2,49.4-49.1
		c8.9-12,14.9-25.5,18.2-40.2c1.3-5.5,1.6-11.1,3-16.6c11.1,3.7,21.3,9.2,30.7,16.1c3,2.2,3,4.2,0.6,7
		c-12.4,14.7-26.7,27.3-40.5,40.5c-24.6,23.8-50.2,46.6-73.4,71.8c-3,3.3-6.2,6.6-8.7,10.2C309.4,381,305.8,382.3,300.9,380.8z"/>
	<path fill="#00BBE8" d="M201.1,190.6c1-1.8,1.9-3.7,2.9-5.5c2-2.4,4-5,4.6-8.1c0.8-3.6,3.2-3.8,6-3.4c17.1,2.7,34.4,3.9,51.7,2.2
		c10.6-1.1,21.1-3.1,30.9-7.4c1.8-0.8,3.5-1.1,5.3-0.9c-0.2,5.7,1.7,11,3.6,16.3c-5.8,4.5-12.6,6.5-19.5,8.3
		c-15.8,4-31.8,4.9-48.1,3.6c-11.5-0.9-22.8-2.7-34.2-3.8C203.1,191.7,202,191.5,201.1,190.6z"/>
	<path fill="#FEFDFD" d="M214.2,347.1c-8.7-1-17.6-1.4-25.7-5.3c-1.8-0.9-4.3-1.3-4-3.8c0.4-2.4,2.8-3.2,5-3.3
		c5.5-0.2,10.9-0.7,16.4-1.3c11.5-1.2,22.1-5.3,32.6-9.6c11.3-4.5,22.3-9.6,33.6-14.1c7.9-3.2,12.3-2.3,15.9,2c2.5,3,2.5,6,0.2,9.1
		c-5.4,7.4-13.1,11.7-21.1,15.6c-12.5,6.1-25.9,9-39.7,9.2C223,345.6,218.8,347.8,214.2,347.1z"/>
	<path fill="#FEB493" d="M425.6,230.6c-0.1-12-1.9-23.6-5.1-35.2c-3.6-13-8.3-25.4-14.5-37.3c-11.3-21.8-26.5-40.4-45.6-55.8
		c-8.8-7.1-17.9-13.7-28-18.8c-10.9-5.4-22.1-10-33.8-13.9c-22.9-7.5-46.2-8.5-69.8-7.5c-8.1,0.4-16,2.6-23.9,4.3
		c-7.3,1.6-14.3,3.7-21.4,6.1c-13.2,4.6-25.5,10.9-37.1,18.5c-23.5,15.5-42.4,35.2-56.8,59.6c-6.4,10.9-12,22.2-15.7,34
		c-5.6,17.8-9.9,36.1-8.8,55.1c0.1,1.5-0.1,3-0.2,4.5c-0.8,0.3-1.6,0.8-2.4-0.1c0.4-9.8-0.1-19.8,1.5-29.4c2-11.9,4.7-23.8,9.2-35
		c5.6-13.9,12.1-27.3,20.7-39.8c11.2-16.3,24.4-30.6,39.9-42.8c13-10.2,27.1-18.8,42.4-24.6c17-6.5,34.7-10.8,53.1-12.5
		c13.5-1.2,26.8-0.7,40.3,0.5c8,0.7,15.6,2.8,23.2,4.9c6.4,1.7,12.7,3.4,18.9,5.9c10.1,4,19.9,8.7,29.1,14.5
		c14.9,9.2,28.5,20.1,40.1,33.2c13,14.5,23.8,30.4,31.8,48.2c3.8,8.4,7.2,17,9.5,25.8c3.3,12.8,7,25.6,5.8,39.1
		C426.9,232.2,426.4,231.2,425.6,230.6z"/>
	<path fill="#FEB493" d="M73.5,295.3C73,303,77.2,309.4,80,316c9.6,22.1,23.3,41.6,40.8,58.2c15.1,14.3,32.2,25.5,51.2,34
		c11.6,5.2,23.8,8.6,36.3,11.5c16.5,3.8,33.2,5.2,50,3.9c7.8-0.6,15.9-0.7,23.4-3.7c2.7-1,5.5-1.1,8.3-0.1c-2.6,2.3-5.6,3-9,3.5
		c-14,2.2-28.2,1.9-42.3,2.2c-10.2,0.2-20.5-0.6-30.2-2.7c-14-3-27.6-7.7-40.7-13.8c-18.5-8.6-35.1-20.2-49.6-34.4
		c-14.2-13.8-25.9-29.6-34.9-47.3c-5-9.9-9-20.1-13.1-30.3c-0.5-1.2-1.3-2.4-0.5-3.8C71.2,293.2,72.2,294.5,73.5,295.3z"/>
	<path fill="#FEB493" d="M291.7,419.4c3.5-3.2,8.2-3.8,12.4-5.3c16.1-5.5,31.1-12.9,45-22.6c19.9-13.8,36.2-31,49.5-51.2
		c7.4-11.2,13.3-23.1,17.6-35.8c2.6-7.7,6.1-15.4,6-23.9c1-1.2,0.8-3.6,3.2-3.4c1.3,4.9-1.4,9.3-2.4,13.7c-1.7,8-4.6,15.8-7.9,23.2
		c-3.5,7.8-7.7,15.3-12,22.7c-13.4,22.8-31.5,41.4-53.1,56.5c-14.1,9.9-29.3,17.9-45.7,23.2C300.4,417.9,296.5,421.8,291.7,419.4z"
		/>
	<path fill="#FEFDFD" d="M262.1,250.6c-4.8,5.5-4.3,10.7-0.9,16.6c-8.9,0.8-15.9-1.8-22.1-7.3c-2.9-2.6-4.6-6-6.5-9.2
		c-1.6-2.7-0.1-4.1,2.2-3.9C243.6,247.7,252.5,247.8,262.1,250.6z"/>
	<path fill="#FEFDFD" d="M145.7,233.7c4.3,0.5,8.6,1,12.9,1.4c2.9,0.3,3.7,1.1,2.3,4.1c-1.3,2.9-2.3,6,0.1,9.2
		c1.3,1.7-0.1,3-2.4,2.7c-9.2-1-16.2-5.4-20.8-13.5c-0.7-1.2-1.1-2.5-0.3-3.7c0.8-1.2,2-0.8,3.2-0.7c1.6,0.2,3.3,0.3,5,0.5
		C145.6,233.8,145.6,233.7,145.7,233.7z"/>
	<path fill="#006EB6" d="M306.2,183.8c-1.9-5.3-3.8-10.5-3.6-16.3c2.2-1.8,4.3-3.6,6.6-5.2c2.4-1.8,4.3-1.4,5.3,1.6
		c0.3,0.9,0.5,1.9,0.7,2.9c0.5,3.4,4.6,6.5,2.5,9.6C315.1,180.3,310.7,182.4,306.2,183.8z"/>
	<path fill="#FEFDFD" d="M71.8,254.7c0.1,1.2,1.9,1.4,1.6,3.5c-5.9,0.4-11.8,2-16.7,6c-0.3-0.3-0.7-0.7-1-1c-1-3.4,0.1-6.2,2.4-8.6
		C62.6,253.1,67.2,254,71.8,254.7z"/>
	<path fill="#FEFDFD" d="M272.8,264.4c0.8-4.1,1.5-8.4,0.1-12.9c3-1,4.7-0.5,5.5,2.1C279.9,258.5,277.8,262.4,272.8,264.4z"/>
	<path fill="#FEFDFD" d="M173.4,248.4c-3.5-4,2-7.4-0.9-10.7c3.4-1.2,4.5,0.8,4.6,2.4C177.4,243.3,175.6,245.8,173.4,248.4z"/>
	<path fill="#E2B371" d="M58,254.6c-2.3,2.5-3.4,5.3-2.4,8.6c-3.2-0.7-3.2-3.3-2.4-5.3C54,256.2,54.8,253.3,58,254.6z"/>
</g>
</svg>
