<?xml version="1.0" encoding="utf-8"?>
<!-- Generator: Adobe Illustrator 18.0.0, SVG Export Plug-In . SVG Version: 6.00 Build 0)  -->
<!DOCTYPE svg PUBLIC "-//W3C//DTD SVG 1.1//EN" "http://www.w3.org/Graphics/SVG/1.1/DTD/svg11.dtd">
<svg version="1.1" id="Ebene_1" xmlns="http://www.w3.org/2000/svg" xmlns:xlink="http://www.w3.org/1999/xlink" x="0px" y="0px"
	 viewBox="0 0 800 800" enable-background="new 0 0 800 800" xml:space="preserve">
<rect fill="#FFFFFF" width="800" height="800"/>
<g>
	<path fill="#333333" d="M332.1,88.8h36.1v438.3H105.7v-30.4h226.4V88.8z"/>
</g>
<g>
	<path fill="#333333" d="M428,504.2c0,31.4,8.6,56.4,25.8,74.9c17.2,18.5,39.1,27.8,65.7,27.8c30.8,0,54.3-7.9,70.4-23.6
		c16.1-15.7,24.2-40,24.2-72.8h33.6l0.6,1.8c1,40.8-10.2,71.8-33.6,93.1c-23.4,21.2-55.1,31.8-95.2,31.8c-37.6,0-68.3-12-92-36
		c-23.7-24-35.6-56.3-35.6-97V193.8h36L428,504.2L428,504.2z"/>
</g>
<g>
	<g>
		<path fill="#333333" d="M784.5,778.8c-0.5,9.2-14.6,6.7-20.8,6.7c-14.5,0-29,0-43.5,0c-50.3,0-100.5,0-150.8,0
			c-64.8,0-129.6,0-194.4,0c-62.8,0-125.5,0-188.3,0c-44.2,0-88.4,0-132.5,0c-9.9,0-19.9,0-29.8,0c-4.2,0-8.2-0.2-9.7-5.3
			c-0.5-1.6-0.1-3.8-0.1-5.5c0-29.7,0-59.4,0-89.2c0-56.1,0-112.2,0-168.3c0-65.9,0-131.8,0-197.7c0-59.2,0-118.3,0-177.5
			c0-35.8,0-71.7,0-107.5c0-5.8-2.2-19.1,6.8-19.1c6.2,0,12.3,0,18.5,0c38.9,0,77.8,0,116.8,0c60.6,0,121.1,0,181.7,0
			c65.7,0,131.3,0,197,0c54.2,0,108.4,0,162.6,0c26.2,0,52.3,0,78.5,0c8.6,0,8.2,7.2,8.2,13.4c0,11.9,0,23.7,0,35.6
			c0,46.8,0,93.6,0,140.3c0,63.7,0,127.4,0,191.1c0,64.1,0,128.2,0,192.2c0,47.9,0,95.8,0,143.7
			C784.5,747.6,784.5,763.2,784.5,778.8c0,6.4,10,6.4,10,0c0-20.7,0-41.5,0-62.2c0-51.2,0-102.3,0-153.5c0-65,0-130.1,0-195.1
			c0-62.3,0-124.7,0-187c0-43.1,0-86.2,0-129.3c0-9.2,0-18.3,0-27.5c0-7.4-2.9-14.4-10.2-17.5c-3.3-1.4-6.5-1.4-9.9-1.4
			c-29,0-58,0-87.1,0c-55.7,0-111.4,0-167.2,0c-65.9,0-131.7,0-197.6,0c-59.4,0-118.9,0-178.3,0c-36.5,0-72.9,0-109.4,0
			c-8.7,0-18.3-1.4-25.3,4.9c-6.5,5.9-4.9,17.4-4.9,25.3c0,36.5,0,72.9,0,109.4c0,59.4,0,118.9,0,178.3c0,65.9,0,131.7,0,197.6
			c0,55.7,0,111.4,0,167.2c0,29,0,58,0,87.1c0,3.5,0,6.6,1.4,9.9c3.1,7.3,10,10.2,17.5,10.2c9.1,0,18.3,0,27.5,0
			c43.1,0,86.2,0,129.3,0c62.3,0,124.7,0,187,0c65,0,130.1,0,195.1,0c51.2,0,102.3,0,153.5,0c20.7,0,41.5,0,62.2,0
			c9.5,0,16.2-7.7,16.7-16.7C794.9,772.4,784.9,772.4,784.5,778.8z"/>
	</g>
</g>
</svg>
