<?xml version="1.0" encoding="utf-8"?>
<!-- Generator: Adobe Illustrator 18.0.0, SVG Export Plug-In . SVG Version: 6.00 Build 0)  -->
<!DOCTYPE svg PUBLIC "-//W3C//DTD SVG 1.1//EN" "http://www.w3.org/Graphics/SVG/1.1/DTD/svg11.dtd">
<svg version="1.1" id="Ebene_1" xmlns="http://www.w3.org/2000/svg" xmlns:xlink="http://www.w3.org/1999/xlink" x="0px" y="0px"
	 viewBox="0 32.7 2409.4 2344.1" enable-background="new 0 32.7 2409.4 2344.1" xml:space="preserve">
<path fill="#231E1B" d="M1201.1,32.7C537.9,32.7,0,570.6,0,1233.7c0,530.5,346.3,980,817.9,1142.1c59,7.4,81.1-29.5,81.1-59
	s0-103.2,0-206.3c-331.6,73.7-405.3-162.1-405.3-162.1c-51.6-140-132.6-176.8-132.6-176.8c-110.5-73.7,7.4-73.7,7.4-73.7
	c117.9,7.4,184.2,125.3,184.2,125.3c110.5,184.2,280,132.6,346.3,103.2c7.4-81.1,44.2-132.6,73.7-162.1
	c-265.3-29.5-545.3-132.6-545.3-596.8c0-132.6,44.2-235.8,125.3-324.2c-14.7-29.5-51.6-154.7,14.7-316.8c0,0,103.2-29.5,331.6,125.3
	c95.8-29.5,198.9-36.8,302.1-36.8c103.2,0,206.3,14.7,302.1,36.8c228.4-154.7,331.6-125.3,331.6-125.3
	c66.3,162.1,22.1,287.4,14.7,316.8c73.7,81,125.3,191.6,125.3,324.2c0,464.2-280,560-545.3,589.5c44.2,36.8,81.1,110.5,81.1,221.1
	c0,162.1,0,287.4,0,331.6c0,29.5,22.1,66.3,81.1,59c478.9-162.1,817.9-611.6,817.9-1142.1C2402.1,570.6,1864.2,32.7,1201.1,32.7z"/>
</svg>
