<?xml version="1.0" encoding="utf-8"?>
<!-- Generator: Adobe Illustrator 18.0.0, SVG Export Plug-In . SVG Version: 6.00 Build 0)  -->
<!DOCTYPE svg PUBLIC "-//W3C//DTD SVG 1.1//EN" "http://www.w3.org/Graphics/SVG/1.1/DTD/svg11.dtd">
<svg version="1.1" id="Logo_FIXED" xmlns="http://www.w3.org/2000/svg" xmlns:xlink="http://www.w3.org/1999/xlink" x="0px" y="0px"
	 viewBox="451.8 593 1505.9 1223.6" enable-background="new 451.8 593 1505.9 1223.6" xml:space="preserve">
<title>Twitter_Logo_Blue</title>
<path fill="#1DA1F2" d="M925.3,1816.7c568.3,0,879.1-470.8,879.1-879.1c0-13.4,0-26.7-0.9-39.9c60.5-43.7,112.7-97.9,154.1-159.9
	c-56.4,25-116.2,41.4-177.5,48.6c64.5-38.6,112.8-99.3,135.8-170.9c-60.6,36-127,61.4-196.2,75C1602.9,566,1407.1,560,1282.7,677
	c-80.2,75.5-114.3,187.9-89.4,295.2c-248.4-12.5-479.9-129.8-636.8-322.8c-82,141.2-40.1,321.8,95.7,412.4
	c-49.2-1.5-97.3-14.7-140.2-38.7c0,1.3,0,2.6,0,3.9c0,147.1,103.7,273.7,247.9,302.9c-45.5,12.4-93.2,14.2-139.5,5.3
	c40.5,125.9,156.5,212.1,288.7,214.6c-109.4,86-244.6,132.7-383.7,132.5c-24.6,0-49.1-1.5-73.5-4.5
	c141.3,90.7,305.7,138.8,473.6,138.5"/>
</svg>
